<?xml version="1.0" encoding="UTF-8"?>
<svg width="199px" height="34px" viewBox="0 0 199 34" version="1.1" xmlns="http://www.w3.org/2000/svg" xmlns:xlink="http://www.w3.org/1999/xlink">
    <!-- Generator: Sketch 41 (35326) - http://www.bohemiancoding.com/sketch -->
    <title>ninghao.net</title>
    <desc>Created with Sketch.</desc>
    <defs></defs>
    <g id="Page-1" stroke="none" stroke-width="1" fill="none" fill-rule="evenodd">
        <path d="M0.755859375,25 C1.02539197,22.3398304 1.25097565,19.3515791 1.43261719,16.0351562 C1.61425872,12.7187334 1.71679676,9.74806 1.74023438,7.12304688 C2.81836477,7.14648449 3.67968428,7.15820312 4.32421875,7.15820312 C5.08594131,7.15820312 5.89452697,7.14648449 6.75,7.12304688 L6.55664062,10.1113281 C6.91992369,9.59570055 7.23925644,9.1855484 7.51464844,8.88085938 C7.79004044,8.57617035 8.14159942,8.27734521 8.56933594,7.984375 C8.99707245,7.69140479 9.45409913,7.45703213 9.94042969,7.28125 C10.4267602,7.10546787 10.9716767,6.96484428 11.5751953,6.859375 C12.178714,6.75390572 12.8085905,6.70117188 13.4648438,6.70117188 C14.5078177,6.70117188 15.5068312,6.83300649 16.4619141,7.09667969 C17.416997,7.36035288 18.1874971,7.779294 18.7734375,8.35351562 C19.3593779,8.92773725 19.7460928,9.5546841 19.9335938,10.234375 C20.1210947,10.9140659 20.2148438,11.6347618 20.2148438,12.3964844 C20.2148438,12.7128922 20.1972658,13.2167934 20.1621094,13.9082031 L19.7929688,21.5898438 C19.7460935,22.6562553 19.7167969,23.7929627 19.7050781,25 C18.7792922,24.9765624 17.9882845,24.9648438 17.3320312,24.9648438 C16.4414018,24.9648438 15.5449264,24.9765624 14.6425781,25 C14.7363286,23.9804637 14.8535149,22.2021611 14.9941406,19.6650391 C15.1347663,17.127917 15.2050781,15.4492229 15.2050781,14.6289062 C15.2050781,13.7031204 15.0585952,12.9589872 14.765625,12.3964844 C14.4726548,11.8339816 14.0185578,11.4062515 13.4033203,11.1132812 C12.7880829,10.820311 12.1230504,10.6738281 11.4082031,10.6738281 C10.7050746,10.6738281 10.0488312,10.8085924 9.43945312,11.078125 C8.83007508,11.3476576 8.3027366,11.7402318 7.85742188,12.2558594 C7.38866953,12.7832058 7.02539191,13.4335899 6.76757812,14.2070312 C6.49804553,15.0273479 6.29882877,16.3808499 6.16992188,18.2675781 C6.05273379,19.9433678 5.95898473,22.1874859 5.88867187,25 C4.98632361,24.9765624 4.17187863,24.9648438 3.4453125,24.9648438 C2.70702756,24.9648438 1.81055215,24.9765624 0.755859375,25 Z M24.8730469,4.06445312 C24.9199221,2.85741584 24.9433594,1.93164385 24.9433594,1.28710938 L24.9433594,0.724609375 C26.009771,0.748046992 26.8769498,0.759765625 27.5449219,0.759765625 C28.4589889,0.759765625 29.3085898,0.748046992 30.09375,0.724609375 C30.0585936,1.01757959 30.0351563,1.35156062 30.0234375,1.7265625 L29.9355469,4.06445312 C29.0449174,4.04101551 28.2246131,4.02929688 27.4746094,4.02929688 C26.7246056,4.02929688 25.8574268,4.04101551 24.8730469,4.06445312 Z M23.9238281,25 C24.0996103,23.2421787 24.2226559,21.7714903 24.2929688,20.5878906 C24.4101568,18.7128813 24.5126949,16.5507935 24.6005859,14.1015625 C24.688477,11.6523315 24.7499998,9.32618289 24.7851562,7.12304688 C25.9335995,7.14648449 26.794919,7.15820312 27.3691406,7.15820312 C27.896487,7.15820312 28.7519472,7.14648449 29.9355469,7.12304688 C29.7714836,9.16211957 29.6396489,11.1074126 29.5400391,12.9589844 C29.4404292,14.8105561 29.3671877,16.9316287 29.3203125,19.3222656 C29.2734373,21.7129026 29.25,23.6054618 29.25,25 C28.1835884,24.9765624 27.3281282,24.9648438 26.6835938,24.9648438 C26.0742157,24.9648438 25.154303,24.9765624 23.9238281,25 Z M33.3984375,25 C33.6679701,22.3398304 33.8935538,19.3515791 34.0751953,16.0351562 C34.2568368,12.7187334 34.3593749,9.74806 34.3828125,7.12304688 C35.4609429,7.14648449 36.3222624,7.15820312 36.9667969,7.15820312 C37.7285194,7.15820312 38.5371051,7.14648449 39.3925781,7.12304688 L39.1992188,10.1113281 C39.5625018,9.59570055 39.8818346,9.1855484 40.1572266,8.88085938 C40.4326186,8.57617035 40.7841775,8.27734521 41.2119141,7.984375 C41.6396506,7.69140479 42.0966773,7.45703213 42.5830078,7.28125 C43.0693384,7.10546787 43.6142548,6.96484428 44.2177734,6.859375 C44.8212921,6.75390572 45.4511686,6.70117188 46.1074219,6.70117188 C47.1503958,6.70117188 48.1494093,6.83300649 49.1044922,7.09667969 C50.0595751,7.36035288 50.8300752,7.779294 51.4160156,8.35351562 C52.0019561,8.92773725 52.3886709,9.5546841 52.5761719,10.234375 C52.7636728,10.9140659 52.8574219,11.6347618 52.8574219,12.3964844 C52.8574219,12.7128922 52.8398439,13.2167934 52.8046875,13.9082031 L52.4355469,21.5898438 C52.3886716,22.6562553 52.3593751,23.7929627 52.3476562,25 C51.4218704,24.9765624 50.6308627,24.9648438 49.9746094,24.9648438 C49.0839799,24.9648438 48.1875045,24.9765624 47.2851562,25 C47.3789067,23.9804637 47.496093,22.2021611 47.6367188,19.6650391 C47.7773445,17.127917 47.8476562,15.4492229 47.8476562,14.6289062 C47.8476562,13.7031204 47.7011733,12.9589872 47.4082031,12.3964844 C47.1152329,11.8339816 46.6611359,11.4062515 46.0458984,11.1132812 C45.430661,10.820311 44.7656286,10.6738281 44.0507812,10.6738281 C43.3476527,10.6738281 42.6914093,10.8085924 42.0820312,11.078125 C41.4726532,11.3476576 40.9453147,11.7402318 40.5,12.2558594 C40.0312477,12.7832058 39.66797,13.4335899 39.4101562,14.2070312 C39.1406237,15.0273479 38.9414069,16.3808499 38.8125,18.2675781 C38.6953119,19.9433678 38.6015629,22.1874859 38.53125,25 C37.6289017,24.9765624 36.8144568,24.9648438 36.0878906,24.9648438 C35.3496057,24.9648438 34.4531303,24.9765624 33.3984375,25 Z M57.8320312,28.7265625 C60.4687632,29.5937543 62.7538966,30.0273438 64.6875,30.0273438 C65.4257849,30.0273438 66.1230436,29.9365243 66.7792969,29.7548828 C67.4355502,29.5732413 67.9863259,29.309572 68.4316406,28.9638672 C68.8769554,28.6181623 69.222655,28.149417 69.46875,27.5576172 C69.714845,26.9658174 69.8789058,26.2802773 69.9609375,25.5009766 C70.0429692,24.7216758 70.1074216,23.5410235 70.1542969,21.9589844 C69.6972633,22.5800812 69.2871112,23.0634748 68.9238281,23.4091797 C68.5605451,23.7548845 68.124026,24.0654283 67.6142578,24.3408203 C67.1044896,24.6162123 66.509769,24.8388663 65.8300781,25.0087891 C65.1503872,25.1787118 64.4355506,25.2636719 63.6855469,25.2636719 C62.6542917,25.2636719 61.6757859,25.1025407 60.75,24.7802734 C59.8242141,24.4580062 59.0009802,23.9511753 58.2802734,23.2597656 C57.5595667,22.5683559 57.0117206,21.6982474 56.6367188,20.6494141 C56.2617169,19.6005807 56.0742188,18.5078182 56.0742188,17.3710938 C56.0742188,15.7421794 56.3818329,14.2011791 56.9970703,12.7480469 C57.6123078,11.2949146 58.5146425,10.0996141 59.7041016,9.16210938 C60.8935606,8.22460469 62.1650323,7.58007988 63.5185547,7.22851562 C64.8720771,6.87695137 66.3749917,6.70117188 68.0273438,6.70117188 C68.9414108,6.70117188 69.9785098,6.75683538 71.1386719,6.86816406 C72.2988339,6.97949274 73.8339748,7.20507643 75.7441406,7.54492188 L75.3398438,13.1171875 L74.9707031,20.0957031 L74.8300781,26.40625 C74.7949217,27.1210973 74.707032,27.809567 74.5664062,28.4716797 C74.4257805,29.1337924 74.2031265,29.7314426 73.8984375,30.2646484 C73.5937485,30.7978542 73.2070336,31.2695292 72.7382812,31.6796875 C72.2695289,32.0898458 71.7392608,32.4208972 71.1474609,32.6728516 C70.5556611,32.9248059 69.8232466,33.1328117 68.9501953,33.296875 C68.0771441,33.4609383 67.1425831,33.5429688 66.1464844,33.5429688 C65.0800728,33.5429688 63.8671943,33.472657 62.5078125,33.3320312 C61.1484307,33.1914055 59.6660237,32.9277363 58.0605469,32.5410156 L57.8320312,28.7265625 Z M70.6640625,10.6386719 C69.6445262,10.4277333 68.7011762,10.3222656 67.8339844,10.3222656 C66.3105393,10.3222656 65.0507862,10.6005832 64.0546875,11.1572266 C63.0585888,11.71387 62.2910183,12.5253853 61.7519531,13.5917969 C61.2128879,14.6582085 60.9433594,15.7890565 60.9433594,16.984375 C60.9433594,17.8632856 61.1074202,18.6806603 61.4355469,19.4365234 C61.7636735,20.1923866 62.2763637,20.7636699 62.9736328,21.1503906 C63.6709019,21.5371113 64.441402,21.7304688 65.2851562,21.7304688 C65.8828155,21.7304688 66.4423802,21.6367197 66.9638672,21.4492188 C67.4853542,21.2617178 67.9570291,20.9746113 68.3789062,20.5878906 C68.8007834,20.2011699 69.17285,19.720706 69.4951172,19.1464844 C69.8173844,18.5722628 70.0458978,17.9248083 70.1806641,17.2041016 C70.3154304,16.4833948 70.4179684,15.5810601 70.4882812,14.4970703 C70.5585941,13.4130805 70.6171873,12.1269606 70.6640625,10.6386719 Z M79.2597656,25 L79.6816406,19.2871094 L80.1035156,11.1132812 L80.3496094,1.00585938 C81.3808645,1.02929699 82.2363247,1.04101562 82.9160156,1.04101562 C83.8066451,1.04101562 84.656246,1.02929699 85.4648438,1.00585938 L85.1484375,5.18945312 C85.0781246,6.22070828 84.9843756,7.87889482 84.8671875,10.1640625 C85.2421894,9.60155969 85.5556628,9.17968891 85.8076172,8.8984375 C86.0595716,8.61718609 86.3408188,8.35644651 86.6513672,8.11621094 C86.9619156,7.87597536 87.2812484,7.67382895 87.609375,7.50976562 C87.9375016,7.3457023 88.3212869,7.19921939 88.7607422,7.0703125 C89.2001975,6.94140561 89.6894504,6.84179723 90.2285156,6.77148438 C90.7675808,6.70117152 91.3183566,6.66601562 91.8808594,6.66601562 C92.8535205,6.66601562 93.7880815,6.77734264 94.6845703,7 C95.5810592,7.22265736 96.3544889,7.59765361 97.0048828,8.125 C97.6552767,8.65234639 98.1005847,9.27050427 98.3408203,9.97949219 C98.5810559,10.6884801 98.7011719,11.4296836 98.7011719,12.203125 C98.7011719,12.7070338 98.6718753,13.4921822 98.6132812,14.5585938 L98.1914062,22.2402344 C98.1562498,23.0371134 98.1386719,23.957026 98.1386719,25 C97.1894484,24.9765624 96.3515661,24.9648438 95.625,24.9648438 C94.8398398,24.9648438 93.9433644,24.9765624 92.9355469,25 C93.0996102,23.6171806 93.2607414,21.7304807 93.4189453,19.3398438 C93.5771492,16.9492068 93.65625,15.250005 93.65625,14.2421875 C93.65625,13.3164016 93.5068374,12.592776 93.2080078,12.0712891 C92.9091782,11.5498021 92.4697295,11.1630872 91.8896484,10.9111328 C91.3095674,10.6591784 90.6738316,10.5332031 89.9824219,10.5332031 C89.0917924,10.5332031 88.306644,10.6914047 87.6269531,11.0078125 C86.9706998,11.3125015 86.4199241,11.7695282 85.9746094,12.3789062 C85.6113263,12.882815 85.3066419,13.6035109 85.0605469,14.5410156 C84.8027331,15.5253955 84.615235,17.0488178 84.4980469,19.1113281 C84.4394528,20.1074269 84.3750004,22.0702979 84.3046875,25 C83.3789016,24.9765624 82.5820346,24.9648438 81.9140625,24.9648438 C81.2812468,24.9648438 80.3964901,24.9765624 79.2597656,25 Z M103.763672,11.0429688 C103.927735,10.1992145 104.030273,9.60742357 104.071289,9.26757812 C104.112305,8.92773268 104.185546,8.41211283 104.291016,7.72070312 C105.884774,7.34570125 107.29101,7.08203201 108.509766,6.9296875 C109.728522,6.77734299 110.906244,6.70117188 112.042969,6.70117188 C113.332038,6.70117188 114.51562,6.85058444 115.59375,7.14941406 C116.67188,7.44824368 117.515622,7.92577797 118.125,8.58203125 C118.734378,9.23828453 119.039063,10.1816345 119.039063,11.4121094 C119.039063,12.0800815 118.945313,13.7822129 118.757813,16.5185547 C118.570312,19.2548965 118.458985,22.0820167 118.423828,25 C117.533199,24.9765624 116.712894,24.9648438 115.962891,24.9648438 C115.248043,24.9648438 114.410161,24.9765624 113.449219,25 C113.601563,23.5820242 113.724609,21.9414156 113.818359,20.078125 L114.046875,15.7011719 C113.60156,15.9941421 113.26172,16.1992182 113.027344,16.3164062 C112.792968,16.4335943 112.529298,16.5419917 112.236328,16.6416016 C111.943358,16.7412114 111.427738,16.8935537 110.689453,17.0986328 C109.951168,17.303712 109.359377,17.4824211 108.914063,17.6347656 C108.468748,17.7871101 108.067385,17.95996 107.709961,18.1533203 C107.352537,18.3466807 107.050782,18.5634754 106.804688,18.8037109 C106.558593,19.0439465 106.379883,19.2958971 106.268555,19.5595703 C106.157226,19.8232435 106.101563,20.1074204 106.101563,20.4121094 C106.101563,20.9042993 106.245116,21.3290998 106.532227,21.6865234 C106.819337,22.0439471 107.179685,22.292968 107.613281,22.4335938 C108.046877,22.5742195 108.556638,22.6445312 109.142578,22.6445312 C109.51758,22.6445312 109.913084,22.6152347 110.329102,22.5566406 C110.745119,22.4980466 111.304684,22.3515637 112.007813,22.1171875 C111.761718,22.7851596 111.474611,23.7812434 111.146484,25.1054688 C110.314449,25.2460945 109.652346,25.3339842 109.160156,25.3691406 C108.667966,25.4042971 108.21094,25.421875 107.789063,25.421875 C106.312493,25.421875 105.099614,25.2226582 104.150391,24.8242188 C103.201167,24.4257793 102.500979,23.7929731 102.049805,22.9257812 C101.598631,22.0585894 101.373047,21.1855513 101.373047,20.3066406 C101.373047,19.8027319 101.460937,19.30469 101.636719,18.8125 C101.812501,18.32031 102.070311,17.8691427 102.410156,17.4589844 C102.750002,17.0488261 103.18945,16.6533222 103.728516,16.2724609 C104.267581,15.8915997 105.04687,15.5224627 106.066406,15.1650391 C107.085943,14.8076154 108.433585,14.4472674 110.109375,14.0839844 C110.55469,13.9902339 111.017576,13.8759772 111.498047,13.7412109 C111.978518,13.6064446 112.362303,13.47461 112.649414,13.3457031 C112.936525,13.2167962 113.185546,13.0498057 113.396484,12.8447266 C113.607423,12.6396474 113.762695,12.4257824 113.862305,12.203125 C113.961915,11.9804676 114.011719,11.7519543 114.011719,11.5175781 C114.011719,11.0605446 113.862306,10.6738297 113.563477,10.3574219 C113.264647,10.041014 112.877932,9.82128968 112.40332,9.69824219 C111.928709,9.5751947 111.4043,9.51367188 110.830078,9.51367188 C108.697255,9.51367188 106.34181,10.0234324 103.763672,11.0429688 Z M132.433594,6.70117188 C133.781257,6.70117188 135.073236,6.90331829 136.30957,7.30761719 C137.545905,7.71191608 138.594722,8.30956636 139.456055,9.10058594 C140.317387,9.89160552 140.964842,10.8583927 141.398438,12.0009766 C141.832033,13.1435604 142.048828,14.3476499 142.048828,15.6132812 C142.048828,16.9492254 141.820315,18.238275 141.363281,19.4804688 C140.906248,20.7226625 140.244145,21.797847 139.376953,22.7060547 C138.509761,23.6142624 137.428717,24.2939431 136.133789,24.7451172 C134.838861,25.1962913 133.458992,25.421875 131.994141,25.421875 C130.634759,25.421875 129.34278,25.2197286 128.118164,24.8154297 C126.893549,24.4111308 125.847661,23.8046915 124.980469,22.9960938 C124.113277,22.187496 123.454104,21.2031308 123.00293,20.0429688 C122.551756,18.8828067 122.326172,17.6699282 122.326172,16.4042969 C122.326172,15.1152279 122.531248,13.8847715 122.941406,12.7128906 C123.351565,11.5410098 123.99316,10.4980514 124.866211,9.58398438 C125.739262,8.6699173 126.855462,7.96094002 128.214844,7.45703125 C129.574226,6.95312248 130.980461,6.70117188 132.433594,6.70117188 Z M132.433594,10.3222656 C131.414057,10.3222656 130.502934,10.5712866 129.700195,11.0693359 C128.897457,11.5673853 128.299807,12.3085888 127.907227,13.2929688 C127.514646,14.2773487 127.318359,15.3496036 127.318359,16.5097656 C127.318359,17.529302 127.479491,18.437496 127.801758,19.234375 C128.124025,20.031254 128.651364,20.6757788 129.383789,21.1679688 C130.116215,21.6601587 130.986323,21.90625 131.994141,21.90625 C133.025396,21.90625 133.93066,21.6513697 134.709961,21.1416016 C135.489262,20.6318334 136.075193,19.8818409 136.467773,18.8916016 C136.860354,17.9013622 137.056641,16.8085997 137.056641,15.6132812 C137.056641,14.6406201 136.904298,13.7558634 136.599609,12.9589844 C136.29492,12.1621054 135.78223,11.5234399 135.061523,11.0429688 C134.340817,10.5624976 133.464849,10.3222656 132.433594,10.3222656 Z M145.40625,25 C145.441406,24.5195288 145.461914,24.1386733 145.467773,23.8574219 C145.473633,23.5761705 145.482422,23.3183605 145.494141,23.0839844 C145.916018,23.0957032 146.244139,23.1015625 146.478516,23.1015625 C146.724611,23.1015625 147.052732,23.0957032 147.462891,23.0839844 C147.439453,23.4355486 147.421875,23.7724593 147.410156,24.0947266 C147.398437,24.4169938 147.380859,24.7187486 147.357422,25 C146.947264,24.9882812 146.625001,24.9824219 146.390625,24.9824219 C146.14453,24.9824219 145.816408,24.9882812 145.40625,25 Z M152.419922,25 L153.017578,14.2597656 L153.175781,9.21484375 C153.199219,8.31249549 153.210938,7.65625205 153.210938,7.24609375 C153.515627,7.25781256 153.74414,7.26367188 153.896484,7.26367188 C154.03711,7.26367188 154.259764,7.25781256 154.564453,7.24609375 L154.335938,11.2539062 C154.593751,10.7031222 154.807616,10.2841811 154.977539,9.99707031 C155.147462,9.7099595 155.378905,9.40234539 155.671875,9.07421875 C155.964845,8.74609211 156.313475,8.438478 156.717773,8.15136719 C157.122072,7.86425638 157.608396,7.6240244 158.176758,7.43066406 C158.74512,7.23730372 159.328122,7.09668013 159.925781,7.00878906 C160.52344,6.920898 161.115231,6.87695312 161.701172,6.87695312 C162.685552,6.87695312 163.64062,6.98828014 164.566406,7.2109375 C165.492192,7.43359486 166.259763,7.81738009 166.869141,8.36230469 C167.478519,8.90722929 167.89746,9.53417614 168.125977,10.2431641 C168.354493,10.952152 168.46875,11.7109335 168.46875,12.5195312 C168.46875,12.8828143 168.451172,13.4218714 168.416016,14.1367188 L168.046875,22.1347656 L167.976562,25 C167.742186,24.9882812 167.513673,24.9824219 167.291016,24.9824219 C167.068358,24.9824219 166.845704,24.9882812 166.623047,25 C166.740235,23.5351489 166.833984,22.1347723 166.904297,20.7988281 L167.150391,16.2988281 C167.244141,14.6347573 167.291016,13.4335974 167.291016,12.6953125 C167.291016,11.9218711 167.179689,11.2304718 166.957031,10.6210938 C166.734374,10.0117157 166.350589,9.50488483 165.805664,9.10058594 C165.260739,8.69628704 164.613285,8.40332122 163.863281,8.22167969 C163.113277,8.04003815 162.339848,7.94921875 161.542969,7.94921875 C160.429682,7.94921875 159.445317,8.10156098 158.589844,8.40625 C157.781246,8.69922021 157.072269,9.12987997 156.462891,9.69824219 C155.853513,10.2666044 155.355471,10.9843707 154.96875,11.8515625 C154.67578,12.4843782 154.453126,13.3691349 154.300781,14.5058594 C154.160156,15.4902393 154.045899,17.0986217 153.958008,19.3310547 C153.870117,21.5634877 153.826172,23.4531173 153.826172,25 C153.521483,24.9882812 153.28711,24.9824219 153.123047,24.9824219 C152.958984,24.9824219 152.724611,24.9882812 152.419922,25 Z M186.328125,23.2949219 C186.234375,23.7285178 186.164063,24.1679665 186.117188,24.6132812 C185.144526,24.8945327 184.271488,25.0908198 183.498047,25.2021484 C182.724606,25.3134771 181.933598,25.3691406 181.125,25.3691406 C179.718743,25.3691406 178.473638,25.1787128 177.389648,24.7978516 C176.305659,24.4169903 175.376957,23.7841841 174.603516,22.8994141 C173.830074,22.014644 173.279299,21.0214899 172.951172,19.9199219 C172.623045,18.8183539 172.458984,17.6464906 172.458984,16.4042969 C172.458984,14.7753825 172.740232,13.2490306 173.302734,11.8251953 C173.865237,10.4013601 174.791009,9.22070781 176.080078,8.28320312 C177.369147,7.34569844 178.96874,6.87695312 180.878906,6.87695312 C182.191413,6.87695312 183.380854,7.12011476 184.447266,7.60644531 C185.513677,8.09277587 186.34277,8.88671324 186.93457,9.98828125 C187.52637,11.0898493 187.822266,12.3964768 187.822266,13.9082031 C187.822266,14.1894545 187.810547,14.4589831 187.787109,14.7167969 L173.882812,14.734375 C173.824218,15.4960976 173.794922,16.0703106 173.794922,16.4570312 C173.794922,17.5703181 173.958983,18.6484323 174.287109,19.6914062 C174.615236,20.7343802 175.110348,21.6074184 175.772461,22.3105469 C176.434574,23.0136754 177.228511,23.5351546 178.154297,23.875 C179.080083,24.2148454 180.058589,24.3847656 181.089844,24.3847656 C182.660164,24.3847656 184.40624,24.021488 186.328125,23.2949219 Z M174.041016,13.7675781 L186.539062,13.7851562 C186.527344,12.9765585 186.480469,12.3554709 186.398438,11.921875 C186.316406,11.4882791 186.164064,11.042971 185.941406,10.5859375 C185.718749,10.128904 185.45215,9.73340011 185.141602,9.39941406 C184.831053,9.06542802 184.467776,8.78418083 184.051758,8.55566406 C183.63574,8.32714729 183.169924,8.15429746 182.654297,8.03710938 C182.138669,7.91992129 181.599612,7.86132812 181.037109,7.86132812 C180.416013,7.86132812 179.806644,7.93163992 179.208984,8.07226562 C178.611325,8.21289133 178.066409,8.40624877 177.574219,8.65234375 C177.082029,8.89843873 176.622072,9.21191216 176.194336,9.59277344 C175.766599,9.97363472 175.41504,10.3867165 175.139648,10.8320312 C174.864256,11.277346 174.653321,11.7021464 174.506836,12.1064453 C174.360351,12.5107442 174.205079,13.0644496 174.041016,13.7675781 Z M198.333984,23.8925781 C198.240234,24.2441424 198.169922,24.6132793 198.123047,25 C197.173823,25.2343762 196.300785,25.3515625 195.503906,25.3515625 C194.835934,25.3515625 194.241214,25.278321 193.719727,25.1318359 C193.19824,24.9853508 192.773439,24.7216816 192.445312,24.3408203 C192.117186,23.959959 191.900391,23.5380883 191.794922,23.0751953 C191.689453,22.6123024 191.636719,22.1171901 191.636719,21.5898437 C191.636719,21.4960933 191.639648,21.3496104 191.645508,21.1503906 C191.651367,20.9511709 191.671875,20.5117221 191.707031,19.8320312 L192.287109,8.1953125 L190.125,8.1953125 C190.171875,7.87890467 190.201172,7.56250158 190.212891,7.24609375 L192.357422,7.24609375 C192.416016,6.50780881 192.46289,5.40625732 192.498047,3.94140625 C192.943362,3.88281221 193.330076,3.80664109 193.658203,3.71289062 C193.576171,5.61133762 193.535156,6.78906021 193.535156,7.24609375 L198.808594,7.24609375 C198.761719,7.56250158 198.732422,7.87890467 198.720703,8.1953125 L193.482422,8.1953125 L192.902344,20.2539062 L192.884766,20.9746094 C192.884766,21.9589893 192.999022,22.6738259 193.227539,23.1191406 C193.456056,23.5644554 193.778318,23.8867178 194.194336,24.0859375 C194.610354,24.2851572 195.041013,24.3847656 195.486328,24.3847656 C195.802736,24.3847656 196.139647,24.3583987 196.49707,24.3056641 C196.854494,24.2529294 197.466793,24.1152355 198.333984,23.8925781 Z" id="ninghao.net" fill="#1C83FB"></path>
    </g>
</svg>